<?xml version="1.0" standalone="no"?><!DOCTYPE svg PUBLIC "-//W3C//DTD SVG 1.1//EN" "http://www.w3.org/Graphics/SVG/1.1/DTD/svg11.dtd"><svg t="1577092486664" class="icon" viewBox="0 0 1029 1024" version="1.1" xmlns="http://www.w3.org/2000/svg" p-id="10095" xmlns:xlink="http://www.w3.org/1999/xlink" width="128.625" height="128"><defs><style type="text/css"></style></defs><path d="M695.867403 650.607735c0-22.629834-22.629834-45.259669-45.259668-45.259669H379.049724c-22.629834 0-45.259669 22.629834-45.259669 45.259669s22.629834 45.259669 45.259669 45.259668h271.558011c28.287293 0 45.259669-16.972376 45.259668-45.259668zM379.049724 424.309392h135.779005c22.629834 0 45.259669-22.629834 45.259669-45.259668s-22.629834-45.259669-45.259669-45.259669H379.049724c-22.629834 0-45.259669 22.629834-45.259669 45.259669s16.972376 45.259669 45.259669 45.259668z" fill="#e0620d" p-id="10096"></path><path d="M1024 118.80663c0-62.232044-50.917127-113.149171-113.149171-113.149171h-792.044199c-62.232044 0-113.149171 50.917127-113.149171 113.149171v792.044199c0 62.232044 50.917127 113.149171 113.149171 113.149171h792.044199c62.232044 0 113.149171-50.917127 113.149171-113.149171v-792.044199zM147.093923 644.950276V384.707182c0-130.121547 107.491713-237.61326 237.613259-237.613259H509.171271c130.121547 0 237.61326 96.176796 237.613259 226.298342 0 22.629834 22.629834 45.259669 50.917127 45.259669h39.60221c28.287293 0 45.259669 28.287293 45.259669 50.917127v169.723757c0 130.121547-107.491713 237.61326-237.61326 237.613259H384.707182c-130.121547 5.657459-237.61326-101.834254-237.613259-231.955801z" fill="#e0620d" p-id="10097"></path></svg>