<?xml version="1.0" standalone="no"?><!DOCTYPE svg PUBLIC "-//W3C//DTD SVG 1.1//EN" "http://www.w3.org/Graphics/SVG/1.1/DTD/svg11.dtd"><svg t="1576738951372" class="icon" viewBox="0 0 1024 1024" version="1.1" xmlns="http://www.w3.org/2000/svg" p-id="4225" xmlns:xlink="http://www.w3.org/1999/xlink" width="16" height="16"><defs><style type="text/css"></style></defs><path d="M1014.619436 485.395605c12.433986 15.579983 12.433986 37.666958 0 53.24594l-170.635809 213.34976a42.639952 42.639952 0 0 1-75.992914-26.62297V597.373479H426.645096a85.354904 85.354904 0 1 1 0-170.709808h341.345617V298.669815a42.639952 42.639952 0 0 1 75.992914-26.622971l170.635809 213.349761zM597.354904 853.291192a85.354904 85.354904 0 1 1 0 170.708808h-426.699521A170.635808 170.635808 0 0 1 0.017575 853.364192V170.673958A170.635808 170.635808 0 0 1 170.654383 0.03815h426.699521a85.354904 85.354904 0 1 1 0 170.635808H256.010287c-47.101947 0-85.354904 37.959957-85.354904 84.695905v512.639424c0 47.101947 37.959957 85.354904 84.696905 85.354905h342.003616z" p-id="4226"></path></svg>