<?xml version="1.0" standalone="no"?><!DOCTYPE svg PUBLIC "-//W3C//DTD SVG 1.1//EN" "http://www.w3.org/Graphics/SVG/1.1/DTD/svg11.dtd"><svg t="1576737935819" class="icon" viewBox="0 0 1024 1024" version="1.1" xmlns="http://www.w3.org/2000/svg" p-id="1790" width="16" height="16" xmlns:xlink="http://www.w3.org/1999/xlink"><defs><style type="text/css"></style></defs><path d="M512.96 3.52C230.72 3.52 1.92 232.32 1.92 514.56c0 225.92 146.56 417.28 349.44 485.12 25.6 4.8 34.88-11.2 34.88-24.64 0-12.16-0.32-44.16-0.64-87.04-142.08 31.04-172.16-68.48-172.16-68.48-23.36-59.2-56.64-74.88-56.64-74.88-46.72-31.36 3.2-30.72 3.2-30.72 51.2 3.52 78.4 52.8 78.4 52.8 45.44 78.08 119.68 55.68 148.8 42.56 4.8-32.96 17.92-55.68 32.32-68.48-113.6-12.8-232.96-56.64-232.96-252.48 0-55.68 19.84-101.44 52.48-137.28-5.12-12.8-22.72-64.96 5.12-135.36 0 0 42.88-13.76 140.48 52.48 40.64-11.2 84.48-16.96 128-17.28 43.52 0.32 87.04 5.76 128 17.28 97.6-66.24 140.48-52.48 140.48-52.48 27.84 70.4 10.24 122.24 5.12 135.36 32.64 35.84 52.48 81.28 52.48 137.28 0 196.48-119.36 239.68-233.28 252.16 18.24 15.68 34.56 47.04 34.56 94.72 0 68.48-0.64 123.52-0.64 140.16 0 13.76 9.28 29.44 35.2 24.64C877.76 932.16 1024 740.48 1024 514.88 1024 232.32 795.2 3.52 512.96 3.52z" fill="#181616" p-id="1791" data-spm-anchor-id="a313x.7781069.0.i3"></path></svg>