<?xml version="1.0" standalone="no"?><!DOCTYPE svg PUBLIC "-//W3C//DTD SVG 1.1//EN" "http://www.w3.org/Graphics/SVG/1.1/DTD/svg11.dtd"><svg t="1576662111169" class="icon" viewBox="0 0 1101 1024" version="1.1" xmlns="http://www.w3.org/2000/svg" p-id="9488" xmlns:xlink="http://www.w3.org/1999/xlink" width="137.625" height="128"><defs><style type="text/css"></style></defs><path d="M665.6 51.2c-7.68-7.68-53.0432-51.2-102.4-51.2-51.2 0-95.2064 44.1856-102.4 51.2L25.6 435.2a208.6656 208.6656 0 0 0 102.4 204.8c0 64.7168 25.6 307.2 25.6 307.2a78.848 78.848 0 0 0 76.8 76.8h665.6a78.848 78.848 0 0 0 76.8-76.8s25.6-245.504 25.6-307.2c116.9152-41.1136 102.4-204.8 102.4-204.8z m-102.4 614.4a128 128 0 0 1 128 128v230.4H435.2v-230.4a128 128 0 0 1 128-128z" p-id="9489"></path></svg>